<?xml version="1.0" encoding="utf-8"?>
<!-- Generator: Adobe Illustrator 15.0.2, SVG Export Plug-In . SVG Version: 6.00 Build 0)  -->
<!DOCTYPE svg PUBLIC "-//W3C//DTD SVG 1.1//EN" "http://www.w3.org/Graphics/SVG/1.1/DTD/svg11.dtd">
<svg version="1.1" id="Layer_1" xmlns="http://www.w3.org/2000/svg" xmlns:xlink="http://www.w3.org/1999/xlink" x="0px" y="0px"
	 width="1200px" height="1200px" viewBox="0 0 1200 1200" enable-background="new 0 0 1200 1200" xml:space="preserve">
<g>
	<path fill-rule="evenodd" clip-rule="evenodd" fill="#F7941E" d="M550.422,290.782c-1.929,18.994-7.456,37.375-16.326,54.261
		L678.05,492.032c20.593-9.925,43.002-15.439,65.961-16.236l59.945-197.528c-15.307-11.352-28.341-25.543-38.354-41.754
		L550.422,290.782z M526.425,193.066l218.266-55.049C754.485,64.634,817.389,8.339,893.028,8.339
		c82.635,0,149.661,67.03,149.661,149.664c0,80.584-63.738,146.32-143.525,149.538l-59.143,194.862
		c46.633,30.299,75.373,82.311,75.373,138.865c0,47.468-20.218,92.066-55.058,123.282l64.754,129.255
		c6.939-0.989,13.952-1.47,20.979-1.47c82.639,0,149.662,67.027,149.662,149.665c0,82.634-67.023,149.661-149.662,149.661
		S796.404,1124.634,796.404,1042c0-38.274,14.528-74.625,40.342-102.21l-67.195-134.124c-6.543,0.783-13.132,1.178-19.73,1.178
		c-33.522,0-65.877-10.053-93.263-28.776l-76.083,67.009c0.514,3.934,0.767,7.907,0.767,11.891c0,50.415-40.89,91.316-91.311,91.316
		c-50.423,0-91.319-40.901-91.319-91.316c0-50.425,40.896-91.324,91.319-91.324c8.7,0,17.312,1.232,25.612,3.653l79.255-69.797
		c-4.035-10.729-6.928-21.852-8.652-33.19l-188.937-25.45c-25.852,48.044-76.254,78.745-131.815,78.745
		c-82.637,0-149.661-67.029-149.661-149.661c0-82.637,67.023-149.659,149.661-149.659c72.708,0,134.096,52.147,147.114,122.061
		l188.905,25.453c1.258-2.536,2.582-5.04,3.969-7.512l-144.344-147.39c-18.729,8.13-38.933,12.318-59.508,12.318
		c-82.636,0-149.663-67.025-149.663-149.662c0-82.637,67.027-149.663,149.663-149.663
		C452.252,125.89,498.945,151.47,526.425,193.066z"/>
</g>
</svg>
